<svg width="69" height="44" viewBox="0 0 69 44" fill="none" xmlns="http://www.w3.org/2000/svg">
<g filter="url(#filter0_d_2_2)">
<path d="M15.2076 24.5612L15.3876 23.0721L15.3876 23.0721L15.2076 24.5612ZM5.07429 22.268C4.42244 22.7793 4.30847 23.7221 4.81973 24.374L13.1512 34.9965C13.6624 35.6483 14.6053 35.7623 15.2572 35.251C15.909 34.7398 16.023 33.7969 15.5117 33.145L8.10599 23.7028L17.5482 16.2971C18.2 15.7858 18.314 14.8429 17.8027 14.1911C17.2915 13.5393 16.3486 13.4253 15.6968 13.9365L5.07429 22.268ZM15.3876 23.0721L6.18 21.9591L5.82 24.9374L15.0276 26.0504L15.3876 23.0721ZM15.0276 26.0504C34.718 28.4304 53.9689 19.0185 64.1837 2.01749L61.6122 0.472418C52.0066 16.4595 33.9037 25.3102 15.3876 23.0721L15.0276 26.0504Z" fill="black"/>
</g>
<defs>
<filter id="filter0_d_2_2" x="0.499939" y="0.472418" width="67.6838" height="43.0984" filterUnits="userSpaceOnUse" color-interpolation-filters="sRGB">
<feFlood flood-opacity="0" result="BackgroundImageFix"/>
<feColorMatrix in="SourceAlpha" type="matrix" values="0 0 0 0 0 0 0 0 0 0 0 0 0 0 0 0 0 0 127 0" result="hardAlpha"/>
<feOffset dy="4"/>
<feGaussianBlur stdDeviation="2"/>
<feComposite in2="hardAlpha" operator="out"/>
<feColorMatrix type="matrix" values="0 0 0 0 0 0 0 0 0 0 0 0 0 0 0 0 0 0 0.25 0"/>
<feBlend mode="normal" in2="BackgroundImageFix" result="effect1_dropShadow_2_2"/>
<feBlend mode="normal" in="SourceGraphic" in2="effect1_dropShadow_2_2" result="shape"/>
</filter>
</defs>
</svg>
