<svg width="219" height="219" viewBox="0 0 219 219" fill="none" xmlns="http://www.w3.org/2000/svg">
<path d="M99.2267 208.705L91.6535 195.794L108.386 197.3L106.514 218.096L89.7818 216.59L99.2267 208.705ZM100.073 207.998L106.815 202.37L107.181 198.306L93.6754 197.091L100.073 207.998Z" fill="#64512B"/>
<path d="M87.6815 216.067L86.6115 215.772L90.0434 203.336C90.3946 202.064 90.401 200.8 90.0628 199.545C89.7245 198.29 89.1034 197.195 88.1993 196.261C87.2952 195.327 86.207 194.684 84.9346 194.333C83.6621 193.982 82.3983 193.975 81.1431 194.313C79.8879 194.652 78.7932 195.273 77.859 196.177C76.9248 197.081 76.2821 198.169 75.931 199.442L72.4991 211.877L71.4291 211.582L74.861 199.146C75.2654 197.681 76.0068 196.423 77.0852 195.372C78.1584 194.34 79.4226 193.631 80.8779 193.244C82.314 192.852 83.7646 192.858 85.2299 193.263C86.6951 193.667 87.9532 194.409 89.0042 195.487C90.0358 196.56 90.7477 197.815 91.1398 199.251C91.5266 200.706 91.5178 202.167 91.1134 203.632L87.6815 216.067Z" fill="#64512B"/>
<path d="M57.5294 204.295C56.6912 203.27 56.2044 202.114 56.069 200.828C55.9156 199.533 56.1296 198.282 56.711 197.075C57.3879 195.669 58.4278 194.616 59.8307 193.916C61.207 193.224 62.6486 193.019 64.1556 193.301L62.5865 184.321L63.7758 184.894L65.2738 193.607L66.1518 193.996L72.9361 197.263L76.047 190.803L77.0471 191.285L67.9876 210.097L60.8249 206.648C60.032 206.266 59.3823 205.886 58.8758 205.509C58.3426 205.142 57.8938 204.737 57.5294 204.295ZM65.3999 194.866C64.4629 194.415 63.4851 194.232 62.4666 194.319C61.4482 194.406 60.5138 194.733 59.6635 195.3C58.8131 195.867 58.1624 196.619 57.7111 197.556C57.2078 198.602 57.0315 199.682 57.1823 200.798C57.315 201.905 57.7681 202.9 58.5416 203.783C59.1055 204.41 60.0271 205.032 61.3065 205.648L67.4691 208.615L72.4545 198.263L65.3999 194.866Z" fill="#64512B"/>
<path d="M51.4203 201.749L50.5223 201.097L58.1047 190.66C58.8806 189.592 59.3307 188.411 59.4551 187.117C59.5794 185.823 59.3825 184.58 58.8644 183.388C58.3462 182.196 57.5532 181.211 56.4853 180.436C55.4174 179.66 54.2364 179.21 52.9424 179.085C51.6483 178.961 50.4052 179.158 49.2129 179.676C48.0206 180.194 47.0366 180.987 46.2607 182.055L38.6782 192.491L37.7802 191.839L45.3627 181.403C46.2561 180.173 47.3923 179.256 48.7713 178.651C50.1385 178.062 51.5713 177.842 53.0698 177.991C54.552 178.129 55.908 178.644 57.1377 179.538C58.3674 180.431 59.2848 181.567 59.8898 182.946C60.4786 184.313 60.7043 185.738 60.5667 187.22C60.4175 188.719 59.8961 190.083 59.0027 191.313L51.4203 201.749Z" fill="#64512B"/>
<path d="M50.1095 174.745L50.8766 175.548L35.7846 189.977L34.9553 189.11L39.2199 174.947L24.9004 178.593L24.1333 177.791L39.2253 163.361L39.9923 164.164L26.505 177.059L39.7782 173.707L40.5038 174.466L36.5137 187.744L50.1095 174.745Z" fill="#64512B"/>
<path d="M14.123 162.909L15.0494 162.297L18.487 167.505L34.0602 157.225L30.6226 152.018L31.5489 151.406L39.0026 162.698L38.0762 163.309L34.6551 158.127L19.082 168.407L22.5031 173.589L21.5767 174.201L14.123 162.909Z" fill="#64512B"/>
<path d="M11.1545 130.516L21.0932 119.323L24.8315 135.702L4.47503 140.348L0.736676 123.97L11.1545 130.516ZM12.0885 131.102L19.5247 135.775L23.5024 134.867L20.485 121.647L12.0885 131.102Z" fill="#64512B"/>
<path d="M0.232965 113.958L0.180473 112.789L20.6545 103.281L20.7083 104.48L13.9418 107.607L14.4035 117.887L21.4244 120.424L21.4769 121.593L0.232965 113.958ZM13.3044 117.485L12.8831 108.105L1.64594 113.324L13.3044 117.485Z" fill="#64512B"/>
<path d="M2.30362 85.539L3.40358 85.688L2.34448 93.5066L21.9356 96.1604L21.7906 97.2306L2.19951 94.5768L1.14041 102.395L0.040451 102.246L2.30362 85.539Z" fill="#64512B"/>
<path d="M5.17438 74.743C5.65645 73.2593 6.47235 72.0103 7.62207 70.996C8.75278 69.9754 10.0633 69.3077 11.5535 68.9928C13.0499 68.6589 14.54 68.733 16.0236 69.215L20.3604 70.6241C21.8441 71.1062 23.0931 71.9221 24.1075 73.0718C25.128 74.2025 25.8052 75.5161 26.1391 77.0125C26.454 78.5028 26.3705 79.9897 25.8884 81.4734C25.4063 82.957 24.5999 84.2091 23.4692 85.2297C22.3195 86.244 20.9964 86.9182 19.5 87.2521C18.0098 87.567 16.5228 87.4834 15.0392 87.0013L10.7023 85.5922C9.2187 85.1101 7.9666 84.3038 6.94606 83.1731C5.9317 82.0233 5.26707 80.7033 4.95217 79.2131C4.61824 77.7167 4.69232 76.2266 5.17438 74.743ZM15.3822 85.9457C16.6756 86.3659 17.9759 86.4414 19.2831 86.1722C20.5774 85.8778 21.7241 85.2935 22.7231 84.4194C23.7093 83.5202 24.4125 82.4238 24.8327 81.1304C25.253 79.8369 25.3254 78.5461 25.05 77.258C24.7617 75.9446 24.1775 74.798 23.2972 73.818C22.4041 72.8128 21.3109 72.1001 20.0174 71.6798L15.6806 70.2707C14.3872 69.8504 13.0933 69.7875 11.7989 70.082C10.4918 70.3512 9.3451 70.9355 8.35895 71.8347C7.35995 72.7088 6.65032 73.7926 6.23006 75.086C5.80979 76.3794 5.74379 77.6828 6.03205 78.9962C6.30747 80.2843 6.89172 81.431 7.78482 82.4362C8.66507 83.4162 9.75192 84.1163 11.0454 84.5365L15.3822 85.9457Z" fill="#64512B"/>
<path d="M31.1727 45.9161L46.1198 46.7083L35.6452 59.843L19.3205 46.8246L29.7952 33.6898L31.1727 45.9161ZM31.2962 47.0122L32.2795 55.7393L35.4694 58.2831L43.9239 47.6815L31.2962 47.0122Z" fill="#64512B"/>
<path d="M31.3891 32.2253L32.225 31.495L40.7124 41.2096C41.5809 42.2037 42.6321 42.9053 43.866 43.3145C45.0999 43.7237 46.3557 43.8084 47.6334 43.5685C48.9111 43.3287 50.047 42.7745 51.041 41.906C52.0351 41.0375 52.7367 39.9863 53.1459 38.7524C53.5551 37.5185 53.6398 36.2627 53.3999 34.985C53.16 33.7073 52.6059 32.5715 51.7374 31.5774L43.25 21.8628L44.0859 21.1325L52.5733 30.8471C53.5734 31.9918 54.2149 33.3036 54.4979 34.7826C54.7677 36.2466 54.6631 37.6924 54.1842 39.1201C53.7203 40.5346 52.916 41.7418 51.7713 42.7419C50.6267 43.742 49.3148 44.3835 47.8358 44.6665C46.3718 44.9363 44.9326 44.8393 43.5181 44.3754C42.0904 43.8964 40.8766 43.0846 39.8765 41.9399L31.3891 32.2253Z" fill="#64512B"/>
<path d="M57.8244 13.5463C59.1418 13.4116 60.3744 13.6419 61.5224 14.2375C62.6875 14.8227 63.6137 15.6905 64.301 16.8408C65.1011 18.18 65.4071 19.6281 65.219 21.1849C65.0378 22.7143 64.4145 24.0303 63.3492 25.1328L71.7081 28.7704L70.5749 29.4474L62.4782 25.8977L61.6695 26.4159L55.2054 30.278L58.8829 36.4331L57.93 37.0024L47.2207 19.078L54.0453 15.0004C54.8008 14.5491 55.4754 14.2159 56.0692 14.0009C56.6699 13.7585 57.2549 13.607 57.8244 13.5463ZM61.3577 25.3091C62.2505 24.7757 62.9413 24.0601 63.43 23.1624C63.9187 22.2646 64.1606 21.3047 64.1556 20.2826C64.1507 19.2604 63.8815 18.303 63.3481 17.4102C62.7531 16.4144 61.9485 15.672 60.9341 15.1831C59.9369 14.6838 58.8568 14.5138 57.6937 14.6728C56.86 14.7982 55.8336 15.225 54.6146 15.9533L48.7429 19.4616L54.6361 29.3251L61.3577 25.3091Z" fill="#64512B"/>
<path d="M63.3147 9.85038L64.3539 9.46035L68.8866 21.5378C69.3504 22.7736 70.0881 23.7999 71.0995 24.6165C72.111 25.4332 73.257 25.9537 74.5374 26.1781C75.8179 26.4025 77.0761 26.2828 78.3119 25.819C79.5478 25.3551 80.574 24.6175 81.3907 23.6061C82.2074 22.5946 82.7279 21.4486 82.9523 20.1681C83.1766 18.8876 83.0569 17.6295 82.5931 16.3937L78.0604 4.31623L79.0996 3.9262L83.6323 16.0036C84.1664 17.4267 84.3061 18.8803 84.0513 20.3645C83.7896 21.8299 83.1836 23.1468 82.2336 24.3151C81.3022 25.4764 80.125 26.3241 78.702 26.8582C77.2789 27.3923 75.8253 27.5319 74.3411 27.2772C72.8757 27.0154 71.5623 26.4189 70.401 25.4875C69.2327 24.5375 68.3815 23.3509 67.8474 21.9278L63.3147 9.85038Z" fill="#64512B"/>
<path d="M86.5731 23.6326L85.481 23.8308L81.7527 3.28632L82.9334 3.07205L92.4043 14.4335L97.2496 0.474049L98.3418 0.275851L102.07 20.8203L100.978 21.0185L97.646 2.65837L93.1311 15.5822L92.098 15.7697L83.2145 5.12486L86.5731 23.6326Z" fill="#64512B"/>
<path d="M116.276 0.119995V1.23H110.036V19.89H116.276V21H102.746V19.89H108.956V1.23H102.746V0.119995H116.276Z" fill="#64512B"/>
<path d="M144.946 15.4878L148.812 29.9481L133.083 24.045L140.42 4.49645L156.149 10.3996L144.946 15.4878ZM143.942 15.944L135.946 19.576L134.512 23.3958L147.208 28.1605L143.942 15.944Z" fill="#64512B"/>
<path d="M164.781 15.4944L165.786 16.0945L162.442 38.4196L161.412 37.8041L162.53 30.4344L153.697 25.1567L147.711 29.6182L146.707 29.0181L164.781 15.4944ZM154.637 24.4604L162.698 29.2765L164.532 17.0229L154.637 24.4604Z" fill="#64512B"/>
<path d="M187.359 32.8787L186.628 33.7146L180.687 28.5234L167.679 43.4117L166.866 42.7011L179.873 27.8129L173.932 22.6217L174.662 21.7858L187.359 32.8787Z" fill="#64512B"/>
<path d="M194.787 41.222C195.76 42.4417 196.353 43.8107 196.566 45.329C196.795 46.8349 196.63 48.2964 196.072 49.7136C195.526 51.1465 194.644 52.3492 193.424 53.3218L189.859 56.165C188.639 57.1376 187.27 57.7305 185.752 57.9437C184.246 58.1725 182.776 58.0141 181.344 57.4684C179.926 56.9102 178.732 56.0213 177.759 54.8016C176.786 53.582 176.186 52.2192 175.957 50.7133C175.744 49.195 175.91 47.7194 176.455 46.2866C177.014 44.8694 177.903 43.6745 179.122 42.7018L182.687 39.8587C183.907 38.8861 185.27 38.2853 186.776 38.0565C188.294 37.8433 189.762 38.0158 191.179 38.574C192.612 39.1197 193.815 40.0024 194.787 41.222ZM179.814 43.5697C178.751 44.4176 177.972 45.4612 177.476 46.7005C177.009 47.9429 176.865 49.2217 177.044 50.537C177.251 51.8554 177.779 53.0463 178.627 54.1096C179.475 55.1729 180.512 55.9444 181.739 56.4242C182.994 56.9071 184.273 57.0512 185.575 56.8564C186.906 56.6648 188.103 56.1451 189.167 55.2971L192.732 52.454C193.795 51.6061 194.56 50.5609 195.028 49.3185C195.523 48.0792 195.667 46.8004 195.46 45.4819C195.281 44.1667 194.767 42.9774 193.919 41.9141C193.071 40.8508 192.02 40.0777 190.765 39.5947C189.538 39.115 188.259 38.9709 186.929 39.1625C185.626 39.3572 184.443 39.8786 183.379 40.7265L179.814 43.5697Z" fill="#64512B"/>
<path d="M204.523 78.8002L195.628 90.8382L190.436 74.8604L210.294 68.4082L215.486 84.3859L204.523 78.8002ZM203.54 78.2994L195.715 74.3123L191.835 75.5731L196.025 88.4694L203.54 78.2994Z" fill="#64512B"/>
<path d="M215.83 86.523L215.979 87.6229L203.195 89.3545C201.887 89.5317 200.723 90.0225 199.701 90.8269C198.68 91.6312 197.918 92.6326 197.414 93.8311C196.91 95.0296 196.747 96.2828 196.924 97.5909C197.101 98.8989 197.592 100.064 198.397 101.085C199.201 102.106 200.202 102.869 201.401 103.372C202.599 103.876 203.853 104.039 205.161 103.862L217.944 102.13L218.093 103.23L205.31 104.962C203.803 105.166 202.355 104.979 200.965 104.4C199.594 103.819 198.445 102.935 197.518 101.749C196.593 100.582 196.028 99.2461 195.824 97.7399C195.62 96.2336 195.808 94.7854 196.386 93.3951C196.968 92.0247 197.841 90.877 199.008 89.9521C200.194 89.0244 201.54 88.4586 203.046 88.2546L215.83 86.523Z" fill="#64512B"/>
<path d="M216.856 118.875C216.242 120.049 215.371 120.951 214.242 121.581C213.111 122.231 211.877 122.526 210.538 122.466C208.98 122.396 207.603 121.853 206.407 120.839C205.23 119.845 204.475 118.6 204.142 117.103L196.502 122.075L196.561 120.757L203.984 115.955L203.997 114.995L204.335 107.472L197.172 107.15L197.222 106.042L218.081 106.978L217.724 114.92C217.684 115.799 217.591 116.546 217.443 117.16C217.315 117.795 217.119 118.367 216.856 118.875ZM205.092 115.344C205.046 116.383 205.262 117.354 205.742 118.256C206.222 119.159 206.89 119.889 207.746 120.448C208.602 121.007 209.549 121.31 210.588 121.357C211.747 121.409 212.81 121.146 213.776 120.569C214.742 120.012 215.479 119.204 215.987 118.146C216.342 117.381 216.551 116.289 216.615 114.871L216.922 108.037L205.443 107.522L205.092 115.344Z" fill="#64512B"/>
<path d="M216.916 125.493L216.669 126.576L204.092 123.705C202.805 123.411 201.542 123.462 200.303 123.856C199.065 124.25 197.999 124.92 197.106 125.865C196.214 126.81 195.62 127.926 195.327 129.213C195.033 130.5 195.083 131.762 195.477 133.001C195.872 134.24 196.541 135.306 197.486 136.198C198.431 137.091 199.547 137.684 200.834 137.978L213.411 140.849L213.164 141.931L200.587 139.06C199.105 138.722 197.815 138.038 196.717 137.008C195.638 135.982 194.873 134.751 194.421 133.314C193.965 131.897 193.906 130.448 194.244 128.966C194.583 127.484 195.267 126.194 196.297 125.095C197.323 124.017 198.544 123.249 199.961 122.793C201.398 122.341 202.857 122.285 204.339 122.623L216.916 125.493Z" fill="#64512B"/>
<path d="M192.6 137.312L193.037 136.291L212.236 144.497L211.765 145.601L197.065 147.246L206.046 158.98L205.61 160.001L186.41 151.794L186.846 150.774L204.005 158.108L195.706 147.22L196.119 146.254L209.897 144.705L192.6 137.312Z" fill="#64512B"/>
<path d="M195.86 175.054L194.933 174.443L198.371 169.235L182.798 158.955L179.36 164.163L178.434 163.552L185.888 152.26L186.814 152.871L183.393 158.054L198.966 168.334L202.387 163.151L203.313 163.763L195.86 175.054Z" fill="#64512B"/>
<path d="M174.986 185.215L160.789 180.475L174.38 170.6L186.653 187.492L173.062 197.367L174.986 185.215ZM175.159 184.125L176.533 175.451L174.135 172.15L163.164 180.121L175.159 184.125Z" fill="#64512B"/>
<path d="M164.239 204.256L163.185 204.764L146.395 189.674L147.476 189.153L153.011 194.147L162.282 189.682L161.856 182.229L162.91 181.721L164.239 204.256ZM162.345 190.85L153.885 194.924L163.101 203.206L162.345 190.85Z" fill="#64512B"/>
<path d="M139.316 214.321L139.02 213.251L146.626 211.152L141.367 192.094L142.408 191.807L147.667 210.864L155.273 208.765L155.568 209.835L139.316 214.321Z" fill="#64512B"/>
<path d="M129.638 216.263C128.084 216.402 126.615 216.143 125.231 215.485C123.848 214.846 122.719 213.903 121.844 212.657C120.948 211.412 120.431 210.013 120.291 208.459L119.882 203.917C119.742 202.364 120.002 200.895 120.66 199.51C121.299 198.127 122.241 196.988 123.485 196.093C124.732 195.218 126.132 194.71 127.686 194.57C129.24 194.43 130.708 194.68 132.091 195.318C133.475 195.977 134.615 196.929 135.51 198.173C136.386 199.42 136.893 200.82 137.033 202.374L137.442 206.915C137.582 208.469 137.332 209.937 136.693 211.32C136.035 212.705 135.082 213.835 133.836 214.71C132.591 215.605 131.192 216.123 129.638 216.263ZM135.927 202.473C135.805 201.119 135.364 199.893 134.603 198.797C133.823 197.723 132.835 196.898 131.639 196.323C130.424 195.77 129.14 195.554 127.785 195.676C126.431 195.798 125.215 196.238 124.139 196.998C123.045 197.779 122.22 198.767 121.665 199.962C121.092 201.178 120.866 202.463 120.988 203.818L121.397 208.36C121.518 209.714 121.969 210.929 122.749 212.003C123.51 213.099 124.498 213.924 125.712 214.477C126.909 215.052 128.184 215.279 129.539 215.157C130.893 215.035 132.118 214.584 133.212 213.802C134.288 213.043 135.113 212.055 135.686 210.839C136.241 209.644 136.458 208.369 136.336 207.015L135.927 202.473Z" fill="#64512B"/>
</svg>
